<?xml version="1.0" standalone="no"?>
<!DOCTYPE svg PUBLIC "-//W3C//DTD SVG 20010904//EN"
 "http://www.w3.org/TR/2001/REC-SVG-20010904/DTD/svg10.dtd">
<svg version="1.0" xmlns="http://www.w3.org/2000/svg"
 width="50.000000pt" height="50.000000pt" viewBox="0 0 50.000000 50.000000"
 preserveAspectRatio="xMidYMid meet">

<g transform="translate(0.000000,50.000000) scale(0.100000,-0.100000)"
fill="#ceb5b5" stroke="none">
<path d="M78 400 c-35 -39 -64 -74 -66 -79 -3 -10 226 -306 238 -306 9 0 240
292 240 302 0 3 -30 39 -66 79 l-66 74 -108 0 -109 0 -63 -70z m112 10 c-45
-56 -52 -59 -44 -13 9 51 11 53 45 53 l31 0 -32 -40z m153 33 c2 -5 8 -25 11
-46 8 -46 1 -43 -44 13 l-32 40 31 0 c16 0 32 -3 34 -7z m-39 -55 l46 -53 -50
-3 c-27 -2 -73 -2 -100 0 l-50 3 46 53 c25 28 49 52 54 52 5 0 29 -24 54 -52z
m-182 -14 c-7 -35 -11 -39 -40 -42 -18 -2 -32 0 -32 4 0 10 72 85 77 80 2 -1
0 -21 -5 -42z m328 -36 c0 -10 -57 -11 -63 0 -2 4 -8 25 -11 47 l-8 40 41 -40
c23 -21 41 -43 41 -47z m-309 -91 c15 -34 34 -79 43 -99 9 -21 15 -38 12 -38
-2 0 -32 37 -67 82 -101 129 -96 118 -52 118 37 0 39 -2 64 -63z m219 57 c0
-14 -104 -244 -110 -244 -6 0 -110 230 -110 244 0 3 50 6 110 6 61 0 110 -3
110 -6z m88 -12 c-34 -48 -141 -182 -144 -182 -3 0 3 17 12 38 9 20 28 65 43
99 25 61 27 63 64 63 35 0 37 -2 25 -18z"/>
</g>
</svg>
