<?xml version="1.0" standalone="no"?>
<!DOCTYPE svg PUBLIC "-//W3C//DTD SVG 20010904//EN"
 "http://www.w3.org/TR/2001/REC-SVG-20010904/DTD/svg10.dtd">
<svg version="1.0" xmlns="http://www.w3.org/2000/svg"
 width="50.000000pt" height="50.000000pt" viewBox="0 0 50.000000 50.000000"
 preserveAspectRatio="xMidYMid meet">

<g transform="translate(0.000000,50.000000) scale(0.100000,-0.100000)"
fill="#ceb5b5" stroke="none">
<path d="M134 436 c-17 -8 -41 -27 -53 -44 -22 -31 -29 -82 -11 -82 16 0 12
-37 -5 -44 -16 -6 -21 -41 -6 -50 5 -3 7 -15 4 -26 -3 -11 0 -20 6 -20 14 0
14 -25 -1 -49 -9 -15 -8 -24 5 -45 l17 -26 160 0 160 0 17 26 c13 21 14 30 5
45 -15 23 -15 49 -1 49 6 0 8 8 4 19 -3 11 -1 22 5 26 15 9 12 45 -5 51 -17 7
-21 44 -5 44 16 0 11 43 -9 76 -29 47 -75 64 -173 64 -47 -1 -96 -7 -114 -14z
m237 -19 c40 -27 65 -67 56 -91 -6 -15 -25 -16 -179 -14 -167 3 -173 4 -176
24 -3 24 41 82 72 94 12 5 60 9 107 9 74 1 91 -2 120 -22z m39 -126 c0 -5 -38
-11 -84 -12 -65 -3 -89 -8 -105 -23 -20 -18 -22 -18 -40 -2 -10 9 -35 20 -55
23 -81 13 -27 23 124 23 88 0 160 -4 160 -9z m-242 -41 c32 -20 32 -20 65 0
24 15 50 20 104 20 84 0 103 -6 103 -31 0 -18 -10 -19 -190 -19 -181 0 -190 1
-190 19 0 35 58 41 108 11z m251 -54 c18 -21 -3 -23 -174 -21 -192 3 -180 2
-165 20 18 21 322 22 339 1z m-26 -35 c30 -2 18 -18 -19 -24 -20 -3 -45 -14
-55 -23 -18 -16 -20 -16 -40 2 -16 15 -40 20 -105 23 -79 3 -112 15 -61 23 20
3 236 2 280 -1z m-114 -55 c20 -18 22 -18 40 -2 27 25 99 33 107 13 3 -8 1
-25 -6 -36 -10 -20 -19 -21 -170 -21 -151 0 -160 1 -170 21 -23 43 -7 51 89
47 70 -2 93 -7 110 -22z"/>
</g>
</svg>
