<?xml version="1.0" standalone="no"?>
<!DOCTYPE svg PUBLIC "-//W3C//DTD SVG 20010904//EN"
 "http://www.w3.org/TR/2001/REC-SVG-20010904/DTD/svg10.dtd">
<svg version="1.0" xmlns="http://www.w3.org/2000/svg"
 width="64.000000pt" height="64.000000pt" viewBox="0 0 64.000000 64.000000"
 preserveAspectRatio="xMidYMid meet">

<g transform="translate(0.000000,64.000000) scale(0.100000,-0.100000)"
fill="#ceb5b5" stroke="none">
<path d="M0 540 c0 -82 3 -100 15 -100 13 0 15 -28 15 -190 0 -162 -2 -190
-15 -190 -10 0 -15 -10 -15 -30 l0 -30 320 0 320 0 0 30 c0 20 -5 30 -15 30
-13 0 -15 28 -15 190 0 162 2 190 15 190 12 0 15 18 15 100 l0 100 -320 0
-320 0 0 -100z m620 0 l0 -80 -300 0 -300 0 0 80 0 80 300 0 300 0 0 -80z
m-30 -290 c0 -120 -4 -190 -10 -190 -6 0 -10 65 -10 175 l0 175 -90 0 -90 0 0
-175 0 -175 -170 0 -170 0 0 190 0 190 270 0 270 0 0 -190z m-40 -25 l0 -165
-70 0 -70 0 0 165 0 165 70 0 70 0 0 -165z m70 -195 c0 -6 -107 -10 -300 -10
-193 0 -300 4 -300 10 0 6 107 10 300 10 193 0 300 -4 300 -10z"/>
<path d="M90 595 c0 -4 7 -19 14 -34 13 -25 13 -31 0 -50 -8 -11 -12 -26 -9
-31 8 -13 38 -13 52 1 8 8 16 7 30 -2 11 -7 28 -9 37 -6 15 6 15 9 1 37 -14
27 -14 33 0 60 15 30 15 30 -13 30 -15 0 -33 -5 -40 -12 -9 -9 -12 -9 -12 0 0
7 -13 12 -30 12 -16 0 -30 -2 -30 -5z m56 -32 c13 -17 15 -17 28 0 18 24 29
22 16 -3 -6 -12 -8 -31 -4 -43 6 -19 5 -20 -10 -8 -14 12 -19 11 -38 -5 -21
-19 -21 -19 -14 1 10 25 10 35 1 58 -4 9 -4 17 0 17 4 0 14 -8 21 -17z"/>
<path d="M250 595 c0 -4 7 -19 14 -34 13 -25 13 -31 0 -50 -8 -11 -12 -26 -9
-31 8 -13 38 -13 52 1 8 8 16 7 30 -2 11 -7 28 -9 37 -6 15 6 15 9 1 37 -14
27 -14 33 0 60 15 30 15 30 -13 30 -15 0 -33 -5 -40 -12 -9 -9 -12 -9 -12 0 0
7 -13 12 -30 12 -16 0 -30 -2 -30 -5z m56 -32 c13 -17 15 -17 28 0 18 24 29
22 16 -3 -6 -12 -8 -31 -4 -43 6 -19 5 -20 -10 -8 -14 12 -19 11 -38 -5 -21
-19 -21 -19 -14 1 10 25 10 35 1 58 -4 9 -4 17 0 17 4 0 14 -8 21 -17z"/>
<path d="M410 595 c0 -4 7 -19 14 -34 13 -25 13 -31 0 -50 -8 -11 -12 -26 -9
-31 8 -13 38 -13 52 1 8 8 16 7 30 -2 11 -7 28 -9 37 -6 15 6 15 9 1 37 -14
27 -14 33 0 60 15 30 15 30 -13 30 -15 0 -33 -5 -40 -12 -9 -9 -12 -9 -12 0 0
7 -13 12 -30 12 -16 0 -30 -2 -30 -5z m56 -32 c13 -17 15 -17 28 0 18 24 29
22 16 -3 -6 -12 -8 -31 -4 -43 6 -19 5 -20 -10 -8 -14 12 -19 11 -38 -5 -21
-19 -21 -19 -14 1 10 25 10 35 1 58 -4 9 -4 17 0 17 4 0 14 -8 21 -17z"/>
<path d="M70 295 l0 -115 150 0 150 0 0 115 0 115 -150 0 -150 0 0 -115z m280
0 l0 -95 -130 0 -130 0 0 95 0 95 130 0 130 0 0 -95z"/>
<path d="M183 339 c-30 -19 -43 -39 -27 -39 13 0 74 42 74 51 0 14 -12 11 -47
-12z"/>
<path d="M213 309 c-56 -37 -77 -59 -56 -59 13 0 133 82 133 91 0 16 -13 10
-77 -32z"/>
<path d="M243 279 c-30 -19 -43 -39 -27 -39 13 0 74 42 74 51 0 14 -12 11 -47
-12z"/>
</g>
</svg>
