<?xml version="1.0" standalone="no"?>
<!DOCTYPE svg PUBLIC "-//W3C//DTD SVG 20010904//EN"
 "http://www.w3.org/TR/2001/REC-SVG-20010904/DTD/svg10.dtd">
<svg version="1.0" xmlns="http://www.w3.org/2000/svg"
 width="60.000000pt" height="60.000000pt" viewBox="0 0 60.000000 60.000000"
 preserveAspectRatio="xMidYMid meet">

<g transform="translate(0.000000,60.000000) scale(0.100000,-0.100000)"
fill="#ceb5b5" stroke="none">
<path d="M223 579 c-137 -67 -180 -319 -78 -455 14 -19 25 -48 27 -75 3 -38 6
-44 26 -44 12 0 22 5 21 10 0 6 -7 9 -15 7 -9 -2 -14 6 -14 23 0 25 1 25 28
11 38 -20 98 -30 106 -18 3 6 -14 13 -40 17 -54 8 -113 56 -147 119 -18 34
-22 57 -22 141 0 103 16 154 64 209 24 27 86 56 121 56 35 0 97 -29 121 -56
66 -75 88 -223 50 -326 -15 -38 -36 -70 -68 -99 -41 -37 -45 -45 -37 -68 12
-35 57 -37 62 -4 2 13 -1 23 -7 23 -6 0 -11 -7 -11 -15 0 -19 -16 -20 -23 -1
-3 8 15 35 41 62 131 136 101 409 -52 483 -54 27 -100 26 -153 0z"/>
<path d="M255 526 c-70 -31 -109 -107 -108 -213 0 -252 255 -294 304 -51 13
64 0 145 -32 197 -29 49 -36 29 -9 -26 64 -129 -1 -313 -110 -313 -139 0 -184
259 -65 370 21 19 37 25 71 24 47 -1 59 10 22 20 -31 8 -39 7 -73 -8z"/>
<path d="M271 433 c-31 -38 -16 -42 22 -5 23 24 27 32 15 32 -9 0 -26 -12 -37
-27z"/>
<path d="M345 381 c-10 -17 12 -21 25 -6 10 12 10 15 -3 15 -9 0 -18 -4 -22
-9z"/>
<path d="M220 369 c0 -5 5 -7 10 -4 6 3 10 8 10 11 0 2 -4 4 -10 4 -5 0 -10
-5 -10 -11z"/>
<path d="M260 295 c-24 -24 -40 -48 -37 -52 4 -4 31 16 60 45 30 31 45 52 36
52 -8 0 -35 -20 -59 -45z"/>
<path d="M322 227 c-18 -18 -29 -36 -25 -40 7 -8 73 51 73 65 0 16 -17 7 -48
-25z"/>
</g>
</svg>
