<?xml version="1.0" standalone="no"?>
<!DOCTYPE svg PUBLIC "-//W3C//DTD SVG 20010904//EN"
 "http://www.w3.org/TR/2001/REC-SVG-20010904/DTD/svg10.dtd">
<svg version="1.0" xmlns="http://www.w3.org/2000/svg"
 width="64.000000pt" height="64.000000pt" viewBox="0 0 64.000000 64.000000"
 preserveAspectRatio="xMidYMid meet">

<g transform="translate(0.000000,64.000000) scale(0.100000,-0.100000)"
fill="#ceb5b5" stroke="none">
<path d="M303 361 c-134 -131 -243 -244 -243 -252 0 -23 27 -56 52 -63 19 -5
40 11 130 105 96 100 109 109 128 99 32 -17 53 -5 133 80 95 101 106 135 75
238 -5 17 -15 32 -21 31 -7 0 -121 -107 -254 -238z m265 176 c12 -43 4 -97
-15 -97 -10 0 -12 -6 -8 -19 6 -21 -10 -38 -20 -21 -4 6 -11 8 -16 4 -6 -4 -6
-11 1 -19 13 -16 -1 -28 -24 -19 -12 5 -16 1 -14 -17 3 -20 -1 -23 -22 -21
-20 3 -22 2 -12 -11 15 -18 2 -30 -23 -21 -14 6 -16 3 -10 -14 3 -12 2 -22 -3
-22 -14 0 -102 50 -102 58 0 9 243 252 252 252 4 0 11 -15 16 -33z m-262 -251
c15 -12 16 -17 7 -27 -10 -10 -17 -9 -33 6 -32 29 -10 47 26 21z m-26 -64 c0
-12 -6 -10 -25 8 -13 12 -22 27 -19 32 8 12 44 -21 44 -40z m-42 -5 l22 -23
-64 -63 c-65 -64 -88 -73 -110 -39 -9 15 0 28 54 83 35 36 67 65 70 65 4 0 16
-10 28 -23z"/>
</g>
</svg>
