<?xml version="1.0" standalone="no"?>
<!DOCTYPE svg PUBLIC "-//W3C//DTD SVG 20010904//EN"
 "http://www.w3.org/TR/2001/REC-SVG-20010904/DTD/svg10.dtd">
<svg version="1.0" xmlns="http://www.w3.org/2000/svg"
 width="60.000000pt" height="60.000000pt" viewBox="0 0 60.000000 60.000000"
 preserveAspectRatio="xMidYMid meet">

<g transform="translate(0.000000,60.000000) scale(0.100000,-0.100000)"
fill="#ceb5b5" stroke="none">
<path d="M201 574 c-60 -30 -107 -88 -117 -143 -9 -57 -15 -71 -26 -71 -6 0
-17 8 -24 18 -12 16 -13 15 -14 -5 0 -16 8 -25 26 -29 33 -8 42 2 52 58 12 63
40 107 91 143 37 26 51 30 111 30 60 0 74 -4 112 -30 23 -17 53 -49 65 -70 21
-37 23 -53 23 -203 0 -128 3 -169 16 -193 28 -56 17 -59 -215 -59 -200 0 -231
4 -231 31 0 18 33 39 52 33 11 -3 26 1 36 9 19 17 145 21 174 6 10 -6 19 -5
23 1 10 16 67 12 87 -7 10 -9 21 -13 25 -10 8 9 -27 47 -44 47 -10 0 -13 31
-13 151 0 97 -4 148 -10 144 -6 -4 -10 -65 -10 -150 0 -143 0 -143 -24 -149
-49 -12 -56 -1 -56 90 0 49 -4 84 -10 84 -5 0 -10 18 -10 40 0 33 -3 40 -20
40 -11 0 -20 5 -20 10 0 6 7 10 16 10 9 0 18 9 21 20 3 11 9 20 13 20 4 0 10
-9 13 -20 3 -11 12 -20 21 -20 9 0 16 -4 16 -10 0 -5 -9 -10 -20 -10 -16 0
-20 -7 -20 -30 0 -16 5 -30 10 -30 6 0 10 8 10 19 0 10 9 21 20 24 26 7 27 47
1 54 -11 3 -21 13 -24 24 -7 25 -47 25 -54 0 -3 -11 -13 -21 -24 -24 -26 -7
-25 -47 1 -54 15 -4 20 -14 20 -39 0 -18 5 -36 10 -39 6 -3 10 -39 10 -79 0
-69 -2 -74 -22 -78 -57 -10 -58 -9 -58 148 0 89 -4 144 -10 144 -6 0 -10 -55
-10 -145 0 -116 -3 -145 -14 -145 -7 0 -19 -6 -25 -14 -7 -8 -20 -12 -31 -9
-17 5 -20 16 -22 102 -4 131 -22 120 -26 -16 -1 -59 -7 -112 -12 -117 -15 -15
-12 -34 10 -56 19 -19 33 -20 230 -20 199 0 211 1 231 21 14 14 18 26 12 37
-4 9 -9 76 -11 148 l-3 132 25 6 c18 4 26 13 26 29 -1 20 -2 21 -14 5 -26 -35
-37 -24 -50 53 -15 87 -120 169 -216 169 -30 0 -65 -9 -99 -26z"/>
<path d="M218 520 c-20 -11 -47 -36 -60 -57 -20 -34 -23 -52 -27 -171 -2 -89
1 -138 8 -145 8 -8 11 24 11 118 1 175 25 229 113 250 21 6 27 4 27 -9 0 -9 5
-16 10 -16 6 0 10 7 10 16 0 13 6 15 28 9 85 -21 111 -76 112 -237 0 -79 4
-118 11 -118 8 0 10 41 7 133 -3 118 -6 136 -27 170 -44 72 -146 97 -223 57z"/>
</g>
</svg>
