<?xml version="1.0" standalone="no"?>
<!DOCTYPE svg PUBLIC "-//W3C//DTD SVG 20010904//EN"
 "http://www.w3.org/TR/2001/REC-SVG-20010904/DTD/svg10.dtd">
<svg version="1.0" xmlns="http://www.w3.org/2000/svg"
 width="50.000000pt" height="50.000000pt" viewBox="0 0 50.000000 50.000000"
 preserveAspectRatio="xMidYMid meet">

<g transform="translate(0.000000,50.000000) scale(0.100000,-0.100000)"
fill="#ceb5b5" stroke="none">
<path d="M180 460 c0 -6 30 -10 70 -10 40 0 70 4 70 10 0 6 -30 10 -70 10 -40
0 -70 -4 -70 -10z"/>
<path d="M150 420 c0 -6 40 -10 100 -10 60 0 100 4 100 10 0 6 -40 10 -100 10
-60 0 -100 -4 -100 -10z"/>
<path d="M110 380 c0 -6 53 -10 140 -10 87 0 140 4 140 10 0 6 -53 10 -140 10
-87 0 -140 -4 -140 -10z"/>
<path d="M80 340 c0 -6 63 -10 170 -10 107 0 170 4 170 10 0 6 -63 10 -170 10
-107 0 -170 -4 -170 -10z"/>
<path d="M40 300 c0 -6 77 -10 210 -10 133 0 210 4 210 10 0 6 -77 10 -210 10
-133 0 -210 -4 -210 -10z"/>
<path d="M213 233 c2 -48 2 -48 -30 -48 -27 -1 -33 3 -33 21 0 22 -15 40 -39
46 -10 2 -14 -8 -15 -37 -1 -35 -4 -40 -23 -37 -17 2 -23 -2 -23 -17 0 -11 -5
-31 -11 -45 -15 -31 -4 -76 18 -76 13 0 14 3 5 12 -24 24 -4 88 33 104 12 6
22 22 26 44 l6 35 2 -32 c0 -17 8 -39 16 -47 13 -12 14 -20 5 -36 -13 -25 -10
-72 6 -77 6 -2 8 10 6 31 -2 18 1 37 7 40 6 4 11 16 11 27 0 12 7 19 20 19 23
0 40 28 40 66 0 39 18 18 22 -26 3 -31 6 -35 31 -35 23 1 27 -3 23 -18 -5 -19
33 -106 47 -107 15 0 6 38 -14 64 -20 25 -20 28 -5 51 9 13 17 37 17 52 1 20
3 22 6 8 2 -11 6 -30 9 -42 3 -15 12 -23 24 -23 11 0 20 -7 20 -15 0 -9 7 -27
16 -40 9 -14 14 -32 10 -40 -3 -9 0 -15 9 -15 19 0 19 39 0 65 -10 12 -13 30
-9 51 7 37 -12 56 -31 31 -18 -25 -25 -21 -25 12 0 19 -8 35 -22 45 -27 19
-37 13 -30 -19 3 -20 1 -24 -12 -19 -10 4 -18 0 -22 -10 -10 -26 -24 -18 -24
14 0 31 -30 70 -54 70 -11 0 -14 -12 -13 -47z"/>
<path d="M228 126 c-27 -34 -38 -86 -18 -86 6 0 10 12 10 27 l0 27 16 -23 c11
-15 23 -21 35 -18 11 3 17 1 13 -4 -3 -5 2 -9 10 -9 18 0 22 35 5 46 -6 3 -15
1 -19 -6 -15 -25 -30 0 -24 41 4 21 5 39 3 39 -2 0 -16 -16 -31 -34z"/>
</g>
</svg>
