<?xml version="1.0" standalone="no"?>
<!DOCTYPE svg PUBLIC "-//W3C//DTD SVG 20010904//EN"
 "http://www.w3.org/TR/2001/REC-SVG-20010904/DTD/svg10.dtd">
<svg version="1.0" xmlns="http://www.w3.org/2000/svg"
 width="64.000000pt" height="64.000000pt" viewBox="0 0 64.000000 64.000000"
 preserveAspectRatio="xMidYMid meet">

<g transform="translate(0.000000,64.000000) scale(0.100000,-0.100000)"
fill="#ceb5b5" stroke="none">
<path d="M121 586 c-20 -24 -24 -80 -8 -118 14 -32 14 -41 0 -80 -8 -23 -19
-49 -25 -56 -8 -9 -8 -16 0 -24 8 -8 12 -51 12 -119 l0 -108 -27 -3 c-17 -2
-28 -9 -28 -18 0 -13 37 -15 275 -15 238 0 275 2 275 15 0 9 -11 16 -27 18
l-28 3 0 108 c0 68 4 111 12 119 8 8 8 15 0 24 -6 7 -17 32 -25 56 -13 38 -13
47 0 82 18 44 11 101 -14 121 -14 12 -18 11 -27 -5 -6 -10 -21 -31 -33 -46
-22 -27 -24 -27 -60 -14 -48 17 -98 17 -145 0 -34 -12 -39 -12 -56 8 -11 11
-25 31 -31 44 -14 26 -24 28 -40 8z m98 -112 c83 28 102 30 144 18 23 -7 49
-15 58 -18 9 -3 30 7 49 22 l33 28 -8 -25 c-4 -13 -14 -33 -21 -43 -11 -16
-11 -23 0 -45 27 -53 29 -71 7 -71 -12 0 -26 13 -38 37 -23 48 -75 83 -123 83
-48 0 -100 -35 -123 -83 -12 -24 -26 -37 -38 -37 -22 0 -20 18 7 71 11 22 11
29 0 45 -7 10 -17 30 -21 43 l-8 25 33 -28 c19 -15 40 -25 49 -22z m150 -68
c43 -23 51 -54 51 -196 l0 -130 -100 0 -100 0 0 133 c1 141 8 169 51 193 31
17 64 17 98 0z m-189 -216 c0 -103 -1 -110 -20 -110 -19 0 -20 7 -20 110 0
103 1 110 20 110 19 0 20 -7 20 -110z m320 0 c0 -103 -1 -110 -20 -110 -19 0
-20 7 -20 110 0 103 1 110 20 110 19 0 20 -7 20 -110z"/>
<path d="M307 334 c-4 -4 -7 -28 -7 -53 0 -49 -16 -47 -22 4 -4 36 -31 41 -36
6 -6 -38 7 -71 33 -83 20 -9 25 -19 27 -57 2 -33 7 -46 18 -46 11 0 16 13 18
46 2 38 7 48 27 57 26 12 39 45 33 83 -4 32 -32 31 -36 -1 -6 -51 -16 -54 -21
-6 -6 47 -18 65 -34 50z"/>
</g>
</svg>
