<?xml version="1.0" standalone="no"?>
<!DOCTYPE svg PUBLIC "-//W3C//DTD SVG 20010904//EN"
 "http://www.w3.org/TR/2001/REC-SVG-20010904/DTD/svg10.dtd">
<svg version="1.0" xmlns="http://www.w3.org/2000/svg"
 width="60.000000pt" height="60.000000pt" viewBox="0 0 60.000000 60.000000"
 preserveAspectRatio="xMidYMid meet">

<g transform="translate(0.000000,60.000000) scale(0.100000,-0.100000)"
fill="#FFFFFF" stroke="none">
<path d="M65 510 c-8 -13 -3 -20 68 -108 l60 -74 -29 -23 c-22 -18 -26 -26
-18 -35 9 -9 20 -8 44 5 32 17 33 17 56 -12 13 -15 23 -33 24 -40 0 -19 -20
-26 -36 -12 -23 19 -39 -3 -24 -31 10 -19 9 -26 -9 -44 l-22 -21 -19 25 c-15
20 -21 22 -31 13 -10 -10 -9 -18 8 -40 25 -35 53 -40 84 -14 l24 19 20 -37
c11 -20 27 -36 35 -36 8 0 24 16 35 36 l20 37 24 -19 c31 -26 59 -21 84 14 17
22 18 30 8 40 -10 9 -16 7 -31 -13 l-19 -25 -22 21 c-18 18 -19 25 -9 44 15
28 -1 50 -24 31 -16 -14 -36 -7 -36 12 0 7 12 25 25 40 24 27 25 27 56 11 24
-12 34 -13 43 -4 8 9 4 17 -18 35 l-29 23 67 82 c37 46 65 88 63 94 -5 15
-463 21 -472 6z m310 -75 c-38 -25 -72 -45 -75 -45 -3 0 -36 21 -75 45 l-70
45 145 0 145 -1 -70 -44z m-150 -46 c27 -16 33 -24 23 -30 -20 -13 -22 -12
-46 21 -27 36 -24 37 23 9z m173 -9 c-24 -33 -26 -34 -46 -21 -10 6 -5 13 20
29 46 28 52 27 26 -8z m-73 -54 c18 -13 18 -14 -1 -39 -10 -15 -21 -26 -24
-26 -3 0 -14 11 -24 26 -19 25 -19 26 -1 39 11 8 22 14 25 14 3 0 14 -6 25
-14z m-5 -156 c8 -14 7 -25 -2 -40 -7 -11 -15 -20 -18 -20 -3 0 -11 9 -18 20
-13 21 -1 60 18 60 5 0 14 -9 20 -20z"/>
</g>
</svg>
