<?xml version="1.0" standalone="no"?>
<!DOCTYPE svg PUBLIC "-//W3C//DTD SVG 20010904//EN"
 "http://www.w3.org/TR/2001/REC-SVG-20010904/DTD/svg10.dtd">
<svg version="1.0" xmlns="http://www.w3.org/2000/svg"
 width="32.000000pt" height="32.000000pt" viewBox="0 0 32.000000 32.000000"
 preserveAspectRatio="xMidYMid meet">

<g transform="translate(0.000000,32.000000) scale(0.100000,-0.100000)"
fill="#FFFFFF" stroke="none">
<path d="M100 283 c-19 -10 -45 -33 -57 -52 -81 -120 79 -270 196 -184 33 24
61 79 61 118 0 94 -115 162 -200 118z m94 -9 c13 -5 12 -9 -9 -26 -25 -19 -25
-19 -50 0 -17 14 -21 22 -13 25 19 8 54 8 72 1z m-64 -68 c-12 -12 -15 -8 -25
24 -8 25 -8 25 14 6 14 -13 18 -23 11 -30z m84 22 c-9 -30 -10 -31 -24 -23 -8
5 -6 13 6 26 22 25 27 24 18 -3z m-137 -65 c-11 -13 -25 -23 -30 -23 -13 0 -1
68 15 87 11 14 14 12 24 -13 11 -25 10 -32 -9 -51z m199 21 c8 -45 -1 -53 -30
-25 -21 20 -23 27 -14 52 8 24 13 27 24 18 7 -6 16 -27 20 -45z m-96 1 c19
-23 8 -50 -20 -50 -16 0 -26 6 -28 18 -4 18 14 47 28 47 4 0 13 -7 20 -15z
m-70 -40 c0 -8 -7 -15 -16 -15 -14 0 -14 3 -4 15 7 8 14 15 16 15 2 0 4 -7 4
-15z m120 0 c10 -12 10 -15 -4 -15 -9 0 -16 7 -16 15 0 8 2 15 4 15 2 0 9 -7
16 -15z m-100 -61 c6 -14 10 -30 10 -35 0 -13 -51 14 -74 40 -19 21 -19 21 18
21 30 0 38 -5 46 -26z m40 11 c0 -8 -4 -15 -10 -15 -5 0 -10 7 -10 15 0 8 5
15 10 15 6 0 10 -7 10 -15z m84 -6 c-23 -26 -74 -53 -74 -40 0 5 4 21 10 35 8
21 16 26 46 26 37 0 37 0 18 -21z"/>
</g>
</svg>
