<?xml version="1.0" standalone="no"?>
<!DOCTYPE svg PUBLIC "-//W3C//DTD SVG 20010904//EN"
 "http://www.w3.org/TR/2001/REC-SVG-20010904/DTD/svg10.dtd">
<svg version="1.0" xmlns="http://www.w3.org/2000/svg"
 width="50.000000pt" height="50.000000pt" viewBox="0 0 50.000000 50.000000"
 preserveAspectRatio="xMidYMid meet">

<g transform="translate(0.000000,50.000000) scale(0.100000,-0.100000)"
fill="#FFFFFF" stroke="none">
<path d="M201 401 c-7 -5 -30 -7 -51 -4 -95 13 -161 -88 -115 -177 15 -30 61
-60 90 -60 21 0 19 8 -10 33 -33 28 -44 87 -20 110 26 27 35 20 35 -25 1 -50
39 -188 59 -212 18 -22 94 -22 112 0 20 24 58 162 59 212 0 45 9 52 35 25 24
-23 13 -82 -20 -110 -29 -25 -31 -33 -10 -33 29 0 75 30 90 60 46 89 -14 182
-118 180 -23 0 -60 2 -82 5 -22 3 -46 1 -54 -4z m88 -26 c32 -16 49 -45 26
-45 -8 0 -15 -4 -15 -10 0 -5 6 -10 14 -10 26 0 36 -66 14 -88 -7 -7 -20 -12
-30 -12 -13 0 -18 -8 -18 -27 0 -22 -2 -25 -10 -13 -8 12 -11 13 -19 1 -7 -11
-9 -11 -14 0 -4 12 -7 11 -16 -1 -9 -12 -11 -10 -11 13 0 19 -5 27 -18 27 -10
0 -23 5 -30 12 -22 22 -12 88 14 88 8 0 14 5 14 10 0 6 -7 10 -15 10 -22 0 -7
28 24 45 34 18 55 18 90 0z m-131 -7 c-3 -7 -22 -22 -43 -33 -53 -28 -62 -45
-48 -97 l11 -43 -19 24 c-37 45 -18 130 35 151 32 13 68 12 64 -2z m270 -23
c28 -33 30 -93 3 -126 l-19 -24 11 43 c14 52 5 69 -48 97 -21 11 -41 27 -43
34 -8 25 70 5 96 -24z m-228 -215 c7 -25 15 -39 18 -31 4 11 6 11 13 0 7 -12
9 -11 9 1 0 13 1 13 10 0 9 -13 10 -13 10 0 0 13 2 13 9 1 7 -11 13 -3 22 30
16 56 34 77 24 29 -14 -70 -27 -85 -70 -85 -43 0 -56 15 -70 85 -10 49 8 27
25 -30z"/>
<path d="M164 275 c-11 -43 34 -73 64 -43 19 19 14 35 -13 42 -14 4 -25 11
-25 16 0 21 -20 9 -26 -15z m42 -32 c-7 -7 -26 7 -26 19 0 6 6 6 15 -2 9 -7
13 -15 11 -17z"/>
<path d="M300 290 c0 -5 -11 -12 -25 -16 -27 -7 -32 -23 -13 -42 30 -30 75 0
64 43 -6 24 -26 36 -26 15z m5 -39 c-3 -6 -11 -11 -17 -11 -6 0 -6 6 2 15 14
17 26 13 15 -4z"/>
<path d="M236 213 c-11 -11 -6 -23 9 -23 8 0 15 4 15 9 0 13 -16 22 -24 14z"/>
</g>
</svg>
